<svg width="92" height="88" viewBox="0 0 92 88" fill="none" xmlns="http://www.w3.org/2000/svg">
<rect width="91.899" height="27.2453" transform="matrix(-1 0 0 1 91.8989 0)" fill="black"/>
<rect width="2.37856" height="23.1369" transform="matrix(-1 0 0 1 89.7366 2.1622)" fill="#E6B66C"/>
<rect width="2.37856" height="23.1369" transform="matrix(-1 0 0 1 85.6282 2.16217)" fill="#E6B66C"/>
<rect width="2.37856" height="23.1369" transform="matrix(-1 0 0 1 81.5198 2.16217)" fill="#E6B66C"/>
<rect width="2.37856" height="23.1369" transform="matrix(-1 0 0 1 77.4114 2.16217)" fill="#E6B66C"/>
<rect width="2.37856" height="23.1369" transform="matrix(-1 0 0 1 73.303 2.16217)" fill="#E6B66C"/>
<rect width="2.37856" height="23.1369" transform="matrix(-1 0 0 1 69.1946 2.16217)" fill="#E6B66C"/>
<rect width="2.37856" height="23.1369" transform="matrix(-1 0 0 1 65.0859 2.16217)" fill="#E6B66C"/>
<rect width="2.37856" height="23.1369" transform="matrix(-1 0 0 1 60.9775 2.16217)" fill="#E6B66C"/>
<rect width="2.37856" height="23.1369" transform="matrix(-1 0 0 1 56.8691 2.16217)" fill="#E6B66C"/>
<rect width="2.37856" height="23.1369" transform="matrix(-1 0 0 1 52.7607 2.16217)" fill="#E6B66C"/>
<rect width="2.37856" height="23.1369" transform="matrix(-1 0 0 1 48.6523 2.16217)" fill="#E6B66C"/>
<rect width="2.37856" height="23.1369" transform="matrix(-1 0 0 1 44.5439 2.16217)" fill="#E6B66C"/>
<rect width="2.37856" height="23.1369" transform="matrix(-1 0 0 1 40.4355 2.16217)" fill="#E6B66C"/>
<rect width="2.37856" height="23.1369" transform="matrix(-1 0 0 1 36.3271 2.16217)" fill="#E6B66C"/>
<rect width="2.37856" height="23.1369" transform="matrix(-1 0 0 1 32.2188 2.16217)" fill="#E6B66C"/>
<rect width="23.1369" height="2.37856" transform="matrix(-1 0 0 1 25.2991 2.1622)" fill="#E6B66C"/>
<rect width="23.1369" height="2.37856" transform="matrix(-1 0 0 1 25.2991 6.27075)" fill="#E6B66C"/>
<rect width="23.1369" height="2.37856" transform="matrix(-1 0 0 1 25.2991 10.3791)" fill="#E6B66C"/>
<rect width="23.1369" height="2.37856" transform="matrix(-1 0 0 1 25.2991 14.4877)" fill="#E6B66C"/>
<rect width="23.1369" height="2.37856" transform="matrix(-1 0 0 1 25.2991 18.5959)" fill="#E6B66C"/>
<rect width="23.1369" height="2.37856" transform="matrix(-1 0 0 1 25.2991 22.7043)" fill="#E6B66C"/>
<rect y="59.8964" width="91.899" height="27.2453" fill="black"/>
<rect x="2.16235" y="62.0588" width="2.37856" height="23.1369" fill="#E6B66C"/>
<rect x="6.27075" y="62.0588" width="2.37856" height="23.1369" fill="#E6B66C"/>
<rect x="10.3792" y="62.0588" width="2.37856" height="23.1369" fill="#E6B66C"/>
<rect x="14.4875" y="62.0588" width="2.37856" height="23.1369" fill="#E6B66C"/>
<rect x="18.5959" y="62.0588" width="2.37856" height="23.1369" fill="#E6B66C"/>
<rect x="22.7043" y="62.0588" width="2.37856" height="23.1369" fill="#E6B66C"/>
<rect x="26.8127" y="62.0588" width="2.37856" height="23.1369" fill="#E6B66C"/>
<rect x="30.9214" y="62.0588" width="2.37856" height="23.1369" fill="#E6B66C"/>
<rect x="35.0298" y="62.0588" width="2.37856" height="23.1369" fill="#E6B66C"/>
<rect x="39.1382" y="62.0588" width="2.37856" height="23.1369" fill="#E6B66C"/>
<rect x="43.2466" y="62.0588" width="2.37856" height="23.1369" fill="#E6B66C"/>
<rect x="47.355" y="62.0588" width="2.37856" height="23.1369" fill="#E6B66C"/>
<rect x="51.4634" y="62.0588" width="2.37856" height="23.1369" fill="#E6B66C"/>
<rect x="55.5718" y="62.0588" width="2.37856" height="23.1369" fill="#E6B66C"/>
<rect x="59.6802" y="62.0588" width="2.37856" height="23.1369" fill="#E6B66C"/>
<rect x="66.5999" y="62.0588" width="23.1369" height="2.37856" fill="#E6B66C"/>
<rect x="66.5999" y="66.1671" width="23.1369" height="2.37856" fill="#E6B66C"/>
<rect x="66.5999" y="70.2755" width="23.1369" height="2.37856" fill="#E6B66C"/>
<rect x="66.5999" y="74.3841" width="23.1369" height="2.37856" fill="#E6B66C"/>
<rect x="66.5999" y="78.4924" width="23.1369" height="2.37856" fill="#E6B66C"/>
<rect x="66.5999" y="82.6009" width="23.1369" height="2.37856" fill="#E6B66C"/>
<path d="M66.9024 57.9504C65.8356 57.9504 65.3022 57.417 65.3022 56.3502V30.705C65.3022 29.6383 65.8356 29.1049 66.9024 29.1049H78.1897C80.4241 29.1049 82.1324 29.6887 83.3144 30.8564C84.4965 32.024 85.0876 33.7034 85.0876 35.8946V37.0623C85.0876 39.1093 84.4389 40.6445 83.1415 41.668C85.5056 42.8789 86.6877 45.1926 86.6877 48.6091V50.0362C86.6877 52.631 86.0101 54.5987 84.6551 55.9394C83.3 57.28 81.3323 57.9504 78.7519 57.9504H66.9024ZM68.4809 54.7717H78.7519C80.4385 54.7717 81.6495 54.4041 82.3846 53.6689C83.1343 52.9193 83.5091 51.7084 83.5091 50.0362V48.6091C83.5091 46.9369 83.1487 45.7404 82.4279 45.0196C81.7071 44.2844 80.4818 43.9168 78.7519 43.9168H68.4809V54.7717ZM68.4809 40.7382H78.8168C79.9556 40.7382 80.7557 40.4139 81.217 39.7652C81.6783 39.1021 81.9089 38.2011 81.9089 37.0623V35.8946C81.9089 34.5828 81.6278 33.653 81.0656 33.1052C80.5034 32.5574 79.5448 32.2835 78.1897 32.2835H68.4809V40.7382Z" fill="white"/>
<path d="M5.92483 57.9504C4.85808 57.9504 4.32471 57.417 4.32471 56.3502V30.705C4.32471 29.6383 4.85808 29.1049 5.92483 29.1049C6.47262 29.1049 7.00599 29.422 7.52495 30.0563L25.2128 52.8256H24.4344V30.705C24.4344 29.6383 24.9677 29.1049 26.0345 29.1049C27.0868 29.1049 27.613 29.6383 27.613 30.705V56.3502C27.613 57.417 27.0868 57.9504 26.0345 57.9504C25.4579 57.9504 24.9245 57.6332 24.4344 56.9989L6.72489 34.2296H7.50333V56.3502C7.50333 57.417 6.97716 57.9504 5.92483 57.9504Z" fill="white"/>
<path d="M56.653 33.0835L36.1108 53.6256M36.1108 33.0835L56.653 53.6256" stroke="white" stroke-width="3.45973" stroke-linecap="round" stroke-linejoin="round"/>
<rect x="89.9529" y="27.2454" width="1.9461" height="32.6512" fill="black"/>
</svg>
