<svg width="26" height="27" viewBox="0 0 26 27" fill="none" xmlns="http://www.w3.org/2000/svg">
<path d="M13 0.570923C11.2928 0.570923 9.60235 0.915526 8.02512 1.58506C6.44788 2.25459 5.01477 3.23593 3.80761 4.47307C1.36964 6.97157 0 10.3603 0 13.8937C0 19.7823 3.731 24.7784 8.892 26.5503C9.542 26.6569 9.75 26.2439 9.75 25.8841V23.6326C6.149 24.432 5.382 21.8474 5.382 21.8474C4.784 20.3019 3.939 19.8889 3.939 19.8889C2.756 19.0629 4.03 19.0895 4.03 19.0895C5.33 19.1828 6.019 20.4618 6.019 20.4618C7.15 22.4868 9.061 21.8873 9.802 21.5676C9.919 20.7016 10.257 20.1154 10.621 19.7823C7.735 19.4493 4.706 18.3035 4.706 13.2275C4.706 11.7487 5.2 10.563 6.045 9.61707C5.915 9.284 5.46 7.89844 6.175 6.09986C6.175 6.09986 7.267 5.74015 9.75 7.45879C10.777 7.16568 11.895 7.01913 13 7.01913C14.105 7.01913 15.223 7.16568 16.25 7.45879C18.733 5.74015 19.825 6.09986 19.825 6.09986C20.54 7.89844 20.085 9.284 19.955 9.61707C20.8 10.563 21.294 11.7487 21.294 13.2275C21.294 18.3168 18.252 19.4359 15.353 19.769C15.821 20.182 16.25 20.9947 16.25 22.2337V25.8841C16.25 26.2439 16.458 26.6702 17.121 26.5503C22.282 24.765 26 19.7823 26 13.8937C26 12.1441 25.6637 10.4117 25.0104 8.79528C24.3571 7.17889 23.3995 5.7102 22.1924 4.47307C20.9852 3.23593 19.5521 2.25459 17.9749 1.58506C16.3977 0.915526 14.7072 0.570923 13 0.570923Z" fill="white"/>
</svg>
