<svg width="24" height="25" viewBox="0 0 24 25" fill="none" xmlns="http://www.w3.org/2000/svg">
<path fill-rule="evenodd" clip-rule="evenodd" d="M3.42857 0.570923C2.51926 0.570923 1.64719 0.932146 1.00421 1.57513C0.361223 2.21811 0 3.09018 0 3.99949V21.1424C0 22.0517 0.361223 22.9237 1.00421 23.5667C1.64719 24.2097 2.51926 24.5709 3.42857 24.5709H20.5714C21.4807 24.5709 22.3528 24.2097 22.9958 23.5667C23.6388 22.9237 24 22.0517 24 21.1424V3.99949C24 3.09018 23.6388 2.21811 22.9958 1.57513C22.3528 0.932146 21.4807 0.570923 20.5714 0.570923H3.42857ZM5.31771 7.93721C5.86103 7.93721 6.38209 7.72138 6.76627 7.3372C7.15045 6.95301 7.36629 6.43195 7.36629 5.88864C7.36629 5.34532 7.15045 4.82426 6.76627 4.44008C6.38209 4.0559 5.86103 3.84007 5.31771 3.84007C4.7744 3.84007 4.25334 4.0559 3.86916 4.44008C3.48497 4.82426 3.26914 5.34532 3.26914 5.88864C3.26914 6.43195 3.48497 6.95301 3.86916 7.3372C4.25334 7.72138 4.7744 7.93721 5.31771 7.93721ZM7.032 20.8218V9.5435H3.60343V20.8218H7.032ZM9.30857 9.5435H12.7371V11.0538C13.2429 10.2618 14.3537 9.19549 16.4194 9.19549C18.8846 9.19549 20.2234 10.8292 20.2234 13.9372C20.2234 14.0864 20.2371 14.7669 20.2371 14.7669V20.8201H16.8086V14.7686C16.8086 13.9372 16.6337 12.3035 14.7857 12.3035C12.936 12.3035 12.78 14.3572 12.7371 15.7012V20.8201H9.30857V9.5435Z" fill="white"/>
</svg>
