<svg width="68" height="68" viewBox="0 0 68 68" fill="none" xmlns="http://www.w3.org/2000/svg">
<path d="M34 0C15.232 0 0 15.232 0 34C0 52.768 15.232 68 34 68C52.768 68 68 52.768 68 34C68 15.232 52.768 0 34 0ZM66.64 34C66.64 35.156 66.5748 36.244 66.436 37.332L60.656 36.652C60.724 35.768 60.7977 34.884 60.7977 34C60.7977 33.184 60.7268 32.3 60.656 31.484L66.436 30.804C66.64 31.892 66.64 32.912 66.64 34ZM1.35717 34C1.35717 32.912 1.42517 31.8212 1.496 30.736L7.276 31.416C7.208 32.3 7.14283 33.116 7.14283 34C7.14283 34.884 7.208 35.7 7.276 36.584L1.496 37.264C1.35717 36.1788 1.35717 35.088 1.35717 34ZM59.3612 25.228L64.804 23.188C65.5335 25.239 66.0574 27.3574 66.368 29.512L60.588 30.192C60.3132 28.492 59.908 26.792 59.3612 25.228ZM59.5 34C59.5 35.7 59.296 37.332 59.0268 38.964L53.312 37.6748C53.5132 36.516 53.6492 35.292 53.6492 34C53.6492 32.708 53.5132 31.416 53.312 30.192L59.0268 28.8972C59.3612 30.532 59.5 32.232 59.5 34ZM34 52.292C29.1496 52.289 24.4987 50.3608 21.0689 46.9311C17.6392 43.5013 15.711 38.8504 15.708 34C15.711 29.1496 17.6392 24.4987 21.0689 21.0689C24.4987 17.6392 29.1496 15.711 34 15.708C38.8504 15.711 43.5013 17.6392 46.9311 21.0689C50.3608 24.4987 52.289 29.1496 52.292 34C52.298 36.3974 51.8314 38.7724 50.9191 40.9894C50.0067 43.2064 48.6664 45.2219 46.9747 46.9206C45.2831 48.6194 43.2733 49.9681 41.0601 50.8898C38.847 51.8114 36.4739 52.2879 34.0765 52.292H34ZM34.612 59.5V53.652C37.1185 53.5738 39.5875 53.021 41.888 52.0228L44.404 57.3268C41.3161 58.6923 37.9877 59.431 34.612 59.5ZM23.46 57.2588L26.044 51.952C28.3303 53.0024 30.805 53.5806 33.32 53.652V59.5C29.9148 59.4342 26.5591 58.6715 23.46 57.2588ZM8.5 34C8.5 32.232 8.704 30.532 9.044 28.832L14.756 30.124C14.4783 31.4009 14.3423 32.6929 14.348 34C14.348 35.224 14.484 36.448 14.688 37.604L8.976 38.8932C8.6404 37.2842 8.48079 35.6435 8.5 34ZM33.32 8.5V14.348C30.8354 14.4288 28.3891 14.9827 26.112 15.98L23.596 10.6788C26.6648 9.32713 29.9678 8.58703 33.32 8.5ZM44.4692 10.744L41.888 16.048C39.5968 15.0211 37.1223 14.466 34.612 14.416V8.568C38.148 8.568 41.48 9.384 44.4692 10.744ZM58.8852 23.936C58.2315 22.3484 57.4349 20.8234 56.5052 19.38L61.268 16.116C62.4379 17.9483 63.4393 19.8829 64.26 21.896L58.8852 23.936ZM58.6868 27.608L52.9692 28.9C52.3174 26.4909 51.2104 24.2288 49.708 22.236L54.332 18.5668C56.372 21.284 57.868 24.276 58.6868 27.608ZM48.892 21.216C47.2728 19.3246 45.312 17.755 43.112 16.5892L45.696 11.288C48.6865 12.8422 51.3433 14.9676 53.516 17.544L48.892 21.216ZM47.192 10.608L49.912 5.44C51.8101 6.52477 53.6079 7.77638 55.284 9.18L51.4108 13.6C50.1072 12.4653 48.694 11.463 47.192 10.608ZM46.036 9.996C44.5078 9.2421 42.9146 8.62761 41.276 8.16L42.704 2.516C44.815 3.11019 46.8636 3.90724 48.8212 4.896L46.036 9.996ZM39.916 7.82C38.216 7.412 36.516 7.208 34.748 7.14283V1.35717C36.9948 1.42517 39.236 1.69717 41.344 2.176L39.916 7.82ZM33.456 7.14283C31.7421 7.20616 30.0363 7.41085 28.356 7.75483L26.996 2.108C29.036 1.632 31.2092 1.35717 33.456 1.35717V7.14283ZM26.996 8.08917C25.3338 8.56328 23.7244 9.17622 22.168 9.928L19.448 4.76C21.4068 3.78943 23.4568 3.01499 25.568 2.448L26.996 8.08917ZM21.012 10.54C19.5119 11.3704 18.0995 12.3501 16.796 13.464L12.92 9.112C14.62 7.684 16.388 6.46 18.292 5.37483L21.012 10.54ZM22.372 11.288L24.888 16.5892C22.694 17.7339 20.7336 19.2792 19.108 21.1452L14.552 17.476C16.7458 14.9394 19.399 12.8399 22.372 11.288ZM13.736 18.564L18.292 22.2332C16.7941 24.2302 15.6867 26.4921 15.028 28.9L9.316 27.608C10.2 24.208 11.696 21.148 13.736 18.564ZM9.18 23.8L3.74 21.76C4.55317 19.72 5.576 17.748 6.8 15.98L11.56 19.312C10.5946 20.7102 9.79586 22.2164 9.18 23.8ZM8.704 25.0892C8.16 26.724 7.684 28.3532 7.48 30.1212L1.7 29.4468C2.04 27.268 2.516 25.092 3.26683 23.052L8.704 25.0892ZM7.412 37.876C7.684 39.576 8.08917 41.276 8.636 42.908L3.196 44.948C2.42795 42.8844 1.90308 40.7383 1.632 38.5532L7.412 37.876ZM9.18 44.132C9.85717 45.764 10.676 47.26 11.56 48.6852L6.8 51.952C5.56909 50.1687 4.54264 48.2527 3.74 46.24L9.18 44.132ZM9.248 40.188L14.9628 38.896C15.5932 41.3218 16.6777 43.6061 18.1588 45.628L13.6 49.3C11.5498 46.5872 10.0695 43.4877 9.248 40.188ZM18.972 46.648C20.6004 48.5746 22.5862 50.1679 24.82 51.34L22.236 56.644C19.2231 55.0649 16.5445 52.9174 14.348 50.32L18.972 46.648ZM21.012 57.4572L18.292 62.628C16.3812 61.5623 14.5816 60.3085 12.92 58.8852L16.796 54.536C18.088 55.6892 19.448 56.644 21.012 57.4572ZM22.168 58.072C23.664 58.82 25.296 59.432 26.9988 59.9052L25.5708 65.5492C23.4555 64.9962 21.4042 64.2223 19.4508 63.24L22.168 58.072ZM28.288 60.248C29.92 60.588 31.62 60.7929 33.388 60.8628V66.64C31.1945 66.5667 29.0104 66.3166 26.8572 65.892L28.288 60.248ZM34.748 60.86C36.4633 60.7999 38.1704 60.5942 39.8508 60.2452L41.208 65.8892C39.0858 66.3652 36.9212 66.6372 34.748 66.7023V60.86ZM41.1428 59.908C42.8017 59.4393 44.4163 58.8259 45.968 58.0748L48.688 63.2428C46.7387 64.2345 44.6873 65.008 42.5708 65.552L41.1428 59.908ZM47.0532 57.4572C48.5531 56.6276 49.9656 55.6489 51.2692 54.536L55.148 58.8852C53.4852 60.307 51.6858 61.5607 49.776 62.628L47.0532 57.4572ZM45.696 56.712L43.18 51.4108C45.4138 50.2388 47.3996 48.6455 49.028 46.7188L53.5783 50.3908C51.3687 52.9717 48.6952 55.1157 45.696 56.712ZM54.3972 49.368L49.844 45.696C51.3502 43.6891 52.4371 41.3997 53.04 38.964L58.7548 40.256C57.8777 43.5365 56.4002 46.626 54.3972 49.368ZM58.82 44.2L64.26 46.2428C63.4464 48.2714 62.4217 50.2087 61.2028 52.0228L56.4372 48.688C57.3893 47.2813 58.1882 45.7767 58.82 44.2ZM59.296 42.9108C59.84 41.344 60.248 39.6468 60.5228 37.9468L66.3 38.624C65.9883 40.7802 65.467 42.8967 64.7388 44.948L59.296 42.9108ZM60.588 15.028L55.8252 18.292C54.8071 16.9018 53.6747 15.6098 52.428 14.416L56.304 10.064C57.8577 11.6059 59.29 13.2655 60.588 15.028ZM11.9 9.996L15.776 14.348C14.484 15.504 13.396 16.796 12.376 18.224L7.616 14.892C8.83856 13.0911 10.2773 11.4468 11.9 9.996ZM7.548 53.108L12.308 49.844C13.328 51.204 14.4868 52.4988 15.708 53.7228L11.832 58.072C10.2783 56.5301 8.84604 54.8705 7.548 53.108ZM56.168 58.0068L52.292 53.652C53.516 52.4988 54.6748 51.2068 55.6892 49.844L60.4548 53.176C59.1505 54.8927 57.7174 56.5076 56.168 58.0068Z" fill="white"/>
</svg>
